<?xml version="1.0" standalone="no"?>
<!DOCTYPE svg PUBLIC "-//W3C//DTD SVG 20010904//EN"
 "http://www.w3.org/TR/2001/REC-SVG-20010904/DTD/svg10.dtd">
<svg version="1.0" xmlns="http://www.w3.org/2000/svg"
 width="512.000000pt" height="512.000000pt" viewBox="0 0 512.000000 512.000000"
 preserveAspectRatio="xMidYMid meet">

<g transform="translate(0.000000,512.000000) scale(0.100000,-0.100000)"
fill="#000000" stroke="none">
<path d="M2511 5106 c-67 -37 -65 -143 4 -174 34 -16 50 -15 90 3 70 34 73
128 5 168 -34 20 -66 21 -99 3z"/>
<path d="M3075 4882 c-16 -11 -67 -58 -112 -105 -77 -80 -83 -90 -83 -128 0
-54 44 -99 98 -99 31 0 47 11 140 104 100 99 105 105 105 145 0 78 -83 124
-148 83z"/>
<path d="M1933 4872 c-12 -9 -27 -30 -33 -46 -18 -49 3 -86 105 -185 76 -74
100 -91 124 -91 46 0 78 19 96 57 26 55 13 81 -94 187 -90 88 -101 96 -137 96
-21 0 -49 -8 -61 -18z"/>
<path d="M733 4845 c-40 -17 -63 -61 -63 -120 0 -106 69 -162 149 -121 36 19
51 55 51 126 0 51 -4 64 -27 89 -34 36 -68 44 -110 26z"/>
<path d="M4302 4845 c-45 -20 -66 -72 -59 -145 5 -45 12 -60 37 -82 42 -38 88
-38 129 1 29 27 31 33 31 104 0 67 -3 77 -26 101 -15 14 -32 26 -40 26 -7 0
-18 2 -26 5 -7 2 -28 -2 -46 -10z"/>
<path d="M2525 4731 c-11 -5 -29 -19 -40 -31 -18 -20 -20 -39 -23 -177 -4
-165 3 -201 42 -228 11 -8 36 -15 56 -15 20 0 45 7 56 15 39 27 46 63 42 229
-3 151 -4 156 -28 181 -28 27 -74 39 -105 26z"/>
<path d="M454 4570 c-56 -22 -72 -108 -31 -156 19 -22 34 -28 80 -32 72 -6
103 2 133 35 43 46 27 121 -33 152 -25 13 -118 14 -149 1z"/>
<path d="M915 4547 c-25 -25 -35 -44 -35 -67 0 -23 10 -42 35 -67 35 -35 36
-35 105 -31 60 3 74 8 97 31 38 38 38 96 0 134 -23 23 -37 28 -97 31 -69 4
-70 4 -105 -31z"/>
<path d="M4018 4564 c-69 -37 -64 -136 9 -173 31 -16 119 -14 153 4 35 18 50
43 50 85 0 42 -15 67 -50 85 -37 19 -127 19 -162 -1z"/>
<path d="M4515 4571 c-63 -26 -81 -110 -32 -158 23 -23 37 -28 96 -31 64 -4
70 -2 102 26 28 25 34 37 34 72 0 35 -6 47 -33 71 -28 25 -40 29 -90 28 -31 0
-66 -4 -77 -8z"/>
<path d="M723 4358 c-49 -23 -70 -137 -37 -199 18 -36 67 -59 107 -52 15 3 38
19 52 35 20 24 25 40 25 88 0 33 -5 71 -12 85 -21 47 -85 67 -135 43z"/>
<path d="M4280 4343 c-39 -35 -51 -116 -27 -176 28 -67 110 -82 162 -30 22 23
25 34 25 100 0 71 -2 77 -31 104 -41 39 -87 39 -129 2z"/>
<path d="M2467 4059 c-99 -10 -243 -54 -327 -101 -179 -100 -325 -268 -399
-456 l-26 -69 -52 46 c-118 106 -249 160 -408 168 -127 6 -220 -13 -331 -67
-152 -76 -276 -219 -331 -383 -26 -80 -27 -89 -31 -357 -4 -314 4 -373 64
-500 46 -97 104 -172 181 -233 l63 -49 0 -64 0 -63 -37 -10 c-21 -5 -108 -26
-193 -47 -85 -20 -188 -52 -229 -70 -208 -95 -351 -276 -396 -499 -13 -67 -15
-143 -13 -462 l3 -383 28 -27 27 -28 420 -3 420 -3 0 -165 0 -166 34 -34 34
-34 573 0 c437 0 580 3 599 13 14 7 33 29 43 50 l19 37 128 0 128 0 5 -30 c9
-41 60 -73 106 -66 39 6 77 37 85 72 6 24 9 24 116 24 107 0 110 0 116 -24 3
-13 17 -35 31 -48 l25 -23 609 0 609 0 27 28 28 27 3 170 3 170 415 0 414 0
32 29 33 29 3 384 c2 320 0 396 -13 463 -45 223 -188 404 -396 499 -41 18
-144 50 -229 70 -85 21 -172 42 -192 47 l-38 10 0 63 0 64 63 49 c77 61 135
136 181 233 60 127 68 186 64 500 -4 268 -5 277 -31 357 -55 164 -179 307
-331 383 -111 54 -204 73 -331 67 -156 -8 -286 -61 -404 -164 -27 -24 -51 -43
-54 -43 -2 0 -14 26 -26 58 -89 242 -299 442 -548 522 -83 27 -116 33 -243 44
-19 2 -75 -1 -123 -5z m256 -215 c130 -33 255 -109 347 -211 66 -74 135 -214
155 -315 15 -75 20 -138 11 -138 -3 0 -89 50 -192 110 -236 138 -235 138 -337
42 -126 -119 -228 -176 -380 -212 -66 -16 -118 -20 -264 -20 l-183 0 0 70 c0
107 26 214 77 319 98 203 304 348 528 370 88 8 163 3 238 -15z m-1319 -438
c115 -55 219 -167 241 -258 6 -25 3 -29 -62 -61 -176 -88 -314 -117 -600 -124
l-223 -6 0 39 c1 112 56 239 140 322 94 93 202 134 340 129 75 -3 95 -8 164
-41z m2669 6 c87 -40 139 -82 193 -154 47 -64 79 -151 89 -242 l7 -58 -219 4
c-297 7 -443 37 -623 128 -33 17 -60 33 -60 36 0 25 72 143 112 184 98 100
204 142 343 136 74 -3 102 -9 158 -34z m-1028 -356 l190 -113 3 -171 c3 -208
-10 -281 -72 -407 -189 -382 -684 -495 -1024 -233 -102 79 -185 200 -229 333
-23 71 -27 100 -31 256 l-4 177 223 5 c191 4 236 8 304 26 141 40 317 134 389
210 17 17 37 31 45 30 9 0 102 -51 206 -113z m-1365 -303 c0 -185 -11 -250
-54 -339 -65 -130 -195 -223 -345 -247 -226 -35 -453 120 -506 346 -8 34 -15
104 -15 155 l0 92 203 0 c276 0 449 30 633 109 38 17 72 30 77 31 4 0 7 -66 7
-147z m1833 121 c200 -85 365 -114 646 -114 l201 0 0 -84 c0 -113 -14 -178
-55 -262 -60 -123 -186 -218 -324 -244 -74 -14 -114 -13 -190 6 -170 42 -308
189 -341 363 -10 55 -14 361 -5 361 3 0 34 -12 68 -26z m-1690 -681 c60 -94
129 -167 215 -230 l72 -54 0 -69 c0 -39 -2 -70 -4 -70 -2 0 -34 14 -70 31 -54
25 -184 62 -443 124 -21 5 -23 11 -23 70 l0 64 60 47 c33 25 78 71 101 100 23
30 43 54 45 54 2 0 23 -30 47 -67z m1566 13 c23 -29 68 -75 101 -100 l60 -47
0 -64 c0 -59 -2 -65 -22 -70 -260 -62 -390 -99 -444 -124 -36 -17 -68 -31 -70
-31 -2 0 -4 31 -4 69 l0 70 65 46 c79 57 183 167 231 246 19 33 37 59 39 59 1
0 21 -24 44 -54z m-2164 -245 c39 0 87 3 108 8 l37 9 0 -67 c0 -59 -7 -84 -72
-243 -40 -98 -75 -178 -78 -178 -3 0 -38 79 -78 175 -66 159 -72 180 -72 243
l0 69 43 -8 c23 -4 74 -8 112 -8z m2728 2 l97 6 0 -62 c0 -54 -9 -84 -72 -239
-40 -98 -75 -178 -78 -178 -3 0 -38 79 -78 175 -66 159 -72 180 -72 243 l0 69
53 -10 c28 -5 96 -7 150 -4z m-1558 -158 c88 -19 250 -19 335 0 36 8 68 14 73
15 4 0 7 -45 7 -101 l0 -101 -122 -279 c-68 -153 -125 -279 -128 -279 -3 0
-61 125 -128 278 l-122 278 0 102 c0 56 3 102 8 102 4 0 39 -7 77 -15z m-1482
-112 c41 -94 187 -452 187 -457 0 -3 -15 -27 -34 -53 -94 -132 -154 -307 -163
-475 l-6 -108 -148 0 -149 0 0 230 c0 245 -5 276 -49 300 -25 13 -77 13 -102
0 -44 -24 -49 -55 -49 -300 l0 -230 -100 0 -100 0 0 303 c0 333 6 389 52 487
38 80 140 183 221 223 44 22 362 111 413 116 6 1 18 -16 27 -36z m835 -14 c95
-22 171 -43 169 -46 -3 -2 -79 -22 -170 -43 -91 -22 -196 -51 -232 -64 -43
-15 -65 -20 -62 -12 56 144 91 216 106 212 9 -3 94 -24 189 -47z m1877 -60
c25 -61 45 -113 43 -115 -2 -2 -33 7 -68 20 -36 13 -135 40 -220 61 -181 43
-185 44 -177 51 5 5 341 91 363 93 7 1 33 -49 59 -110z m799 61 c98 -24 194
-54 230 -72 79 -40 174 -136 210 -211 49 -104 56 -164 56 -494 l0 -303 -100 0
-100 0 0 241 0 241 -29 29 c-41 41 -101 41 -142 0 l-29 -29 0 -241 0 -241
-148 0 -149 0 -7 98 c-11 173 -63 329 -151 463 l-48 72 15 41 c8 22 55 134
103 249 69 163 91 206 104 203 9 -3 92 -23 185 -46z m-2233 -290 l37 -84 -67
-66 c-77 -77 -129 -152 -176 -253 -63 -138 -68 -172 -72 -494 l-5 -293 -129 0
-129 0 0 236 0 236 -34 34 c-44 44 -83 45 -128 5 l-33 -29 -3 -241 -3 -241
-175 0 -174 0 0 260 c0 307 9 370 75 505 51 105 128 202 209 263 98 75 183
109 384 159 103 25 228 56 277 68 50 13 94 22 100 21 5 -1 26 -40 46 -86z"/>
<path d="M2185 2798 c-36 -19 -55 -52 -55 -95 0 -84 100 -124 161 -64 48 49
38 125 -21 156 -34 18 -57 19 -85 3z"/>
<path d="M2848 2794 c-27 -14 -58 -60 -58 -84 0 -27 33 -78 56 -89 44 -20 83
-13 115 18 49 49 35 128 -28 160 -29 15 -52 13 -85 -5z"/>
<path d="M2372 2445 c-125 -105 93 -274 271 -211 114 41 169 130 119 192 -40
50 -87 56 -147 19 -50 -31 -70 -31 -120 0 -51 32 -86 32 -123 0z"/>
</g>
</svg>
